<svg xmlns="http://www.w3.org/2000/svg" version="1.1" xmlns:xlink="http://www.w3.org/1999/xlink" xmlns:svgjs="http://svgjs.dev/svgjs" viewBox="0 0 800 800"><defs><linearGradient x1="50%" y1="0%" x2="50%" y2="100%" id="ccchaos-grad"><stop stop-color="hsl(206, 75%, 49%)" stop-opacity="1" offset="0%"></stop><stop stop-color="hsl(331, 90%, 56%)" stop-opacity="1" offset="100%"></stop></linearGradient></defs><g stroke-width="2" stroke="url(#ccchaos-grad)" fill="none" stroke-linecap="round"><path d="M392.05 99.72C401.73 99.96 411.57 101.19 421.55 103.35 431.55 105.94 441.73 109.35 452.06 113.48 462.45 117.84 473.02 122.75 483.75 128.12 494.56 133.48 505.53 139.14 516.61 145.02 527.74 150.69 538.93 156.48 550.11 162.32 561.21 167.84 572.17 173.39 582.85 178.94 593.23 184.13 603.13 189.35 612.36 194.6 621 199.54 628.74 204.57 635.39 209.73 641.2 214.64 645.75 219.75 648.92 225.08 651.66 232.98 649.83 250.17 646.17 259.56 643.6 265.91 640.87 272.64 638.33 279.72 636.81 286.8 636.11 294.25 636.51 302.05 638.63 309.85 642.17 317.99 647.15 326.44 653.85 334.89 661.72 343.65 670.43 352.7 679.93 361.74 689.41 371.06 698.31 380.64 706.49 390.23 712.9 399.86 717.19 409.53 719.69 419.2 719.68 428.93 717.23 438.71 712.88 448.52 706.39 458.41 698.1 468.37 688.68 478.41 678.16 488.55 667 498.78 655.77 509.12 644.58 519.57 633.75 530.1 623.69 540.74 614.37 551.44 605.9 562.16 598.55 572.92 592.07 583.62 586.38 594.19 581.69 604.65 577.56 614.84 573.8 624.62 570.7 634.09 567.66 642.98 564.52 651.14 561.64 658.74 558.41 665.42 554.71 671.04 548.83 677.75 533.7 683.86 524.36 683.25 517.74 681.84 510.5 679.44 502.69 676.16 494.75 672.76 486.3 668.86 477.4 664.69 468.42 661.01 459.05 657.49 449.33 654.34 439.59 652.26 429.54 650.86 419.21 650.27 408.89 651.01 398.54 652.55 388.22 654.77 377.9 658.03 367.6 661.64 357.33 665.39 347.06 669.61 336.82 673.52 326.63 676.92 316.44 680.17 306.29 682.53 296.23 683.87 286.18 684.6 276.22 684.1 266.41 682.36 256.66 679.82 247.09 676.02 237.77 671.04 228.58 665.31 219.71 658.53 211.21 650.84 202.95 642.6 195.14 633.64 187.85 624.1 180.87 614.27 174.46 604.04 168.68 593.55 163.22 582.96 158.38 572.25 154.19 561.49 150.25 550.78 146.89 540.08 144.09 529.47 141.38 518.96 139.12 508.53 137.26 498.22 135.29 488.01 133.58 477.9 132.1 467.89 130.32 457.96 128.68 448.09 127.14 438.29 125.22 428.54 123.4 418.83 121.7 409.17 119.68 399.52 117.85 389.89 116.31 380.31 114.64 370.73 113.44 361.41 112.78 352.37 112.25 343.32 112.4 334.56 113.26 326.09 114.44 317.63 116.4 309.48 119.15 301.67 122.27 293.87 126.15 286.41 130.74 279.32 135.63 272.23 141.14 265.5 147.18 259.14 153.37 252.77 159.96 246.74 166.87 241.06 173.74 235.31 180.82 229.87 188.04 224.71 195.06 219.41 202.16 214.33 209.31 209.45 216.19 204.34 223.11 199.35 230.06 194.46 236.74 189.25 243.5 184.08 250.34 178.94 256.96 173.45 263.73 167.95 270.68 162.48 277.46 156.68 284.47 150.93 291.73 145.29 298.89 139.44 306.34 133.79 314.09 128.44 321.77 123.07 329.79 118.15 338.12 113.77 346.43 109.61 355.07 106.16 364.06 103.52 373.03 101.31 382.35 100.02 392.04 99.72" stroke-dasharray="9 9" transform="rotate(0, 400, 400)" opacity="0.76"></path><path d="M397.91 110.31C407.35 110.53 416.96 111.71 426.71 113.77 436.49 116.26 446.43 119.53 456.52 123.5 466.65 127.71 476.93 132.47 487.34 137.68 497.78 142.92 508.33 148.48 518.92 154.26 529.49 159.89 540.05 165.65 550.48 171.49 560.77 177.04 570.81 182.64 580.47 188.25 589.79 193.53 598.53 198.84 606.54 204.18 613.97 209.21 620.48 214.32 625.92 219.52 632.35 227.04 638.08 242.72 637.54 251.03 636.43 256.56 634.55 262.4 632.14 268.54 629.99 274.64 627.83 281.08 625.96 287.85 625.14 294.61 625.14 301.71 626.17 309.14 628.8 316.56 632.71 324.32 637.88 332.4 644.58 340.47 652.27 348.86 660.65 357.55 669.71 366.23 678.7 375.21 687.11 384.48 694.88 393.75 701.01 403.11 705.22 412.52 707.8 421.95 708.11 431.46 706.16 441.04 702.46 450.66 696.75 460.36 689.3 470.15 680.72 480 671.01 489.96 660.55 499.99 649.87 510.09 639.06 520.29 628.42 530.53 618.34 540.82 608.81 551.14 599.97 561.42 592.07 571.67 584.93 581.81 578.51 591.74 573.03 601.52 568.11 610.96 563.63 619.95 559.81 628.59 556.17 636.62 552.57 643.89 549.3 650.62 545.83 656.45 542.05 661.26 536.26 666.89 522.04 671.45 513.43 670.44 507.38 668.93 500.74 666.54 493.56 663.39 486.27 660.19 478.47 656.57 470.2 652.73 461.87 649.38 453.1 646.19 443.96 643.34 434.79 641.47 425.26 640.22 415.42 639.68 405.58 640.37 395.67 641.75 385.73 643.74 375.8 646.71 365.85 649.99 355.9 653.41 345.97 657.3 336.04 660.94 326.16 664.15 316.29 667.28 306.47 669.63 296.74 671.09 287.06 672.05 277.49 671.92 268.08 670.66 258.76 668.7 249.66 665.58 240.83 661.35 232.16 656.44 223.82 650.51 215.89 643.69 208.2 636.33 200.97 628.22 194.27 619.51 187.86 610.47 182.01 600.98 176.77 591.16 171.82 581.2 167.45 571.04 163.69 560.77 160.13 550.49 157.11 540.17 154.6 529.88 152.14 519.65 150.08 509.47 148.37 499.38 146.51 489.37 144.89 479.44 143.46 469.61 141.73 459.84 140.09 450.15 138.55 440.55 136.63 430.99 134.78 421.5 133.05 412.08 130.99 402.68 129.11 393.33 127.51 384.07 125.76 374.8 124.48 365.82 123.71 357.14 123.05 348.46 123.05 340.07 123.74 331.99 124.74 323.91 126.49 316.14 129.01 308.71 131.89 301.28 135.53 294.17 139.86 287.42 144.51 280.64 149.78 274.21 155.59 268.11 161.58 261.97 168 256.15 174.76 250.63 181.52 245.02 188.52 239.66 195.69 234.56 202.72 229.29 209.85 224.21 217.04 219.28 224 214.12 231.01 209.06 238.05 204.08 244.83 198.79 251.68 193.53 258.6 188.3 265.29 182.74 272.11 177.19 279.06 171.68 285.84 165.88 292.81 160.16 299.99 154.56 307.06 148.79 314.38 143.25 321.96 138.02 329.48 132.8 337.29 128.03 345.41 123.79 353.49 119.79 361.9 116.48 370.65 113.94 379.37 111.83 388.46 110.59 397.9 110.31" stroke-dasharray="4 1" transform="rotate(4.04, 400, 400)" opacity="0.51"></path><path d="M403.92 120.9C413.12 121.11 422.47 122.23 431.95 124.2 441.45 126.57 451.09 129.7 460.84 133.51 470.62 137.56 480.52 142.15 490.48 147.2 500.44 152.3 510.44 157.73 520.4 163.4 530.31 168.95 540.1 174.66 549.68 180.47 559.07 186.04 568.12 191.66 576.71 197.31 584.93 202.66 592.53 208.05 599.36 213.46 605.64 218.59 611.02 223.78 615.37 229.04 620.39 236.64 624.18 252.3 623.26 260.51 622.14 265.94 620.45 271.64 618.4 277.61 616.73 283.52 615.17 289.73 613.98 296.24 613.82 302.73 614.46 309.53 616.08 316.66 619.15 323.76 623.36 331.19 628.67 338.93 635.33 346.67 642.81 354.71 650.86 363.07 659.48 371.42 667.98 380.08 675.92 389.04 683.28 398 689.14 407.07 693.23 416.22 695.89 425.38 696.47 434.64 694.97 443.99 691.89 453.36 686.91 462.83 680.27 472.38 672.53 481.98 663.62 491.66 653.9 501.41 643.85 511.2 633.51 521.05 623.18 530.9 613.22 540.77 603.64 550.61 594.57 560.35 586.28 570.03 578.63 579.53 571.61 588.76 565.43 597.81 559.8 606.47 554.62 614.63 550.1 622.44 545.83 629.61 541.68 636.03 536.03 644.44 524.15 655.66 517.46 658.23 510.34 658.88 493.5 654.83 483.75 650.67 477 647.68 469.75 644.35 462.05 640.84 454.28 637.81 446.09 634.93 437.49 632.36 428.87 630.7 419.87 629.59 410.53 629.1 401.19 629.72 391.74 630.96 382.23 632.74 372.74 635.42 363.19 638.39 353.64 641.49 344.11 645.06 334.57 648.42 325.08 651.42 315.62 654.4 306.22 656.72 296.91 658.24 287.68 659.38 278.57 659.54 269.65 658.69 260.85 657.24 252.29 654.73 244.01 651.19 235.92 647.03 228.18 641.91 220.85 635.92 213.76 629.41 207.14 622.16 201.03 614.29 195.2 606.06 189.91 597.34 185.19 588.25 180.73 578.98 176.82 569.44 173.46 559.74 170.26 549.99 167.55 540.14 165.29 530.27 163.04 520.41 161.15 510.57 159.56 500.79 157.81 491.05 156.25 481.38 154.85 471.8 153.13 462.26 151.5 452.8 149.94 443.44 148.01 434.12 146.14 424.87 144.36 415.71 142.28 406.58 140.36 397.52 138.7 388.56 136.9 379.61 135.54 370.95 134.66 362.61 133.9 354.25 133.76 346.2 134.28 338.47 135.09 330.73 136.64 323.3 138.91 316.2 141.55 309.07 144.92 302.27 148.98 295.79 153.36 289.28 158.37 283.07 163.92 277.18 169.67 271.22 175.87 265.54 182.44 260.13 189.05 254.6 195.93 249.3 203.01 244.21 210 238.94 217.11 233.83 224.31 228.85 231.32 223.63 238.38 218.49 245.49 213.41 252.38 208.05 259.32 202.71 266.32 197.4 273.1 191.8 279.98 186.22 286.97 180.7 293.79 174.92 300.77 169.25 307.92 163.72 314.95 158.06 322.19 152.64 329.68 147.55 337.08 142.49 344.75 137.88 352.7 133.8 360.61 129.96 368.82 126.79 377.35 124.36 385.86 122.34 394.71 121.17 403.91 120.9" stroke-dasharray="8 1" transform="rotate(8.08, 400, 400)" opacity="0.86"></path><path d="M409.66 131.48C418.59 131.68 427.64 132.74 436.8 134.62 445.97 136.87 455.24 139.86 464.58 143.5 473.93 147.38 483.34 151.8 492.75 156.67 502.14 161.61 511.49 166.89 520.73 172.44 529.87 177.89 538.82 183.52 547.48 189.27 555.92 194.82 563.95 200.45 571.47 206.12 578.62 211.52 585.11 216.97 590.84 222.44 596.08 227.65 600.44 232.91 603.86 238.24 607.7 245.93 610.09 261.66 609.02 269.81 608.01 275.19 606.61 280.79 605 286.63 603.85 292.39 602.91 298.43 602.37 304.74 602.85 311.01 604.08 317.57 606.21 324.43 609.66 331.26 614.11 338.41 619.52 345.85 626.09 353.28 633.35 361.02 641.05 369.06 649.22 377.1 657.25 385.45 664.73 394.1 671.68 402.76 677.26 411.53 681.24 420.39 683.95 429.26 684.76 438.24 683.68 447.31 681.15 456.39 676.86 465.57 671 474.82 664.08 484.09 655.99 493.44 647.03 502.82 637.65 512.22 627.88 521.63 617.96 531.02 608.25 540.38 598.76 549.66 589.62 558.8 581.09 567.83 573.08 576.64 565.6 585.14 558.84 593.42 552.59 601.28 546.78 608.62 541.59 615.6 536.7 621.94 532 627.54 525.6 634.8 512.84 644.1 506.04 645.97 499 646.19 482.87 641.94 473.67 638 467.34 635.24 460.56 632.2 453.34 629.01 446.07 626.29 438.39 623.71 430.3 621.41 422.2 619.94 413.71 618.95 404.88 618.51 396.05 619.08 387.09 620.19 378.05 621.77 369.03 624.18 359.95 626.84 350.85 629.63 341.78 632.88 332.71 635.96 323.68 638.74 314.7 641.55 305.79 643.79 296.99 645.35 288.28 646.6 279.72 646.99 271.36 646.48 263.13 645.47 255.16 643.5 247.5 640.58 240.02 637.11 232.9 632.73 226.2 627.53 219.74 621.84 213.73 615.42 208.21 608.37 202.95 600.97 198.2 593.05 193.99 584.71 189.99 576.17 186.49 567.32 183.5 558.26 180.63 549.09 178.19 539.79 176.15 530.42 174.09 521.03 172.33 511.61 170.84 502.21 169.15 492.83 167.63 483.49 166.24 474.22 164.54 464.98 162.89 455.81 161.31 446.73 159.36 437.68 157.47 428.71 155.66 419.85 153.55 411 151.6 402.23 149.89 393.59 148.05 384.94 146.61 376.59 145.65 368.56 144.78 360.52 144.51 352.79 144.87 345.36 145.5 337.92 146.84 330.78 148.87 323.96 151.26 317.1 154.36 310.54 158.12 304.29 162.21 297.99 166.92 291.96 172.18 286.22 177.67 280.39 183.61 274.81 189.94 269.46 196.36 263.99 203.07 258.71 210.01 253.6 216.9 248.31 223.95 243.15 231.11 238.1 238.12 232.82 245.22 227.6 252.36 222.44 259.32 217.01 266.33 211.62 273.39 206.26 280.26 200.63 287.22 195.05 294.26 189.54 301.13 183.81 308.14 178.21 315.29 172.77 322.32 167.24 329.53 161.97 336.94 157.02 344.27 152.14 351.83 147.7 359.65 143.79 367.41 140.12 375.46 137.09 383.78 134.78 392.09 132.86 400.71 131.74 409.65 131.48" stroke-dasharray="4 7" transform="rotate(12.12, 400, 400)" opacity="0.46"></path><path d="M414.7 142.07C423.34 142.26 432.07 143.26 440.85 145.03 449.64 147.17 458.48 150.01 467.34 153.48 476.19 157.18 485.03 161.42 493.82 166.1 502.56 170.87 511.18 175.98 519.63 181.37 527.96 186.7 536.02 192.23 543.74 197.9 551.23 203.41 558.26 209 564.74 214.66 570.88 220.09 576.36 225.57 581.1 231.08 587.16 239.02 594.48 254.86 595.78 262.84 595.96 270.68 593.64 286.93 592 295.46 591.4 301.12 591.06 307.02 591.16 313.17 592.22 319.26 593.99 325.63 596.57 332.27 600.33 338.87 604.96 345.76 610.41 352.94 616.85 360.1 623.86 367.55 631.21 375.31 638.95 383.05 646.5 391.09 653.54 399.44 660.09 407.79 665.4 416.25 669.25 424.8 671.98 433.36 672.99 442.02 672.28 450.76 670.27 459.51 666.62 468.34 661.5 477.22 655.36 486.12 648.08 495.06 639.9 504 631.24 512.93 622.09 521.85 612.68 530.69 603.34 539.48 594.06 548.15 585.01 556.63 576.4 564.98 568.17 573.06 560.38 580.8 553.19 588.3 546.44 595.36 540.1 601.89 534.32 608.06 528.85 613.61 523.62 618.45 516.44 624.64 502.61 632.23 495.53 633.53 488.4 633.39 472.6 629.09 463.79 625.4 457.77 622.88 451.35 620.12 444.53 617.24 437.69 614.82 430.45 612.53 422.84 610.47 415.21 609.19 407.21 608.32 398.88 607.92 390.55 608.44 382.1 609.42 373.56 610.82 365.04 612.97 356.47 615.35 347.87 617.84 339.31 620.78 330.76 623.58 322.26 626.12 313.82 628.75 305.46 630.88 297.23 632.42 289.1 633.75 281.13 634.31 273.39 634.08 265.79 633.44 258.44 631.92 251.42 629.55 244.59 626.7 238.11 623.01 232.05 618.53 226.2 613.62 220.79 607.99 215.86 601.74 211.14 595.15 206.9 588.03 203.16 580.47 199.59 572.68 196.47 564.55 193.81 556.16 191.22 547.65 189.02 538.96 187.17 530.15 185.25 521.29 183.6 512.36 182.17 503.42 180.53 494.47 179.03 485.53 177.64 476.64 175.93 467.76 174.27 458.93 172.66 450.18 170.69 441.45 168.77 432.8 166.93 424.24 164.81 415.7 162.84 407.25 161.08 398.91 159.2 390.57 157.72 382.53 156.67 374.79 155.71 367.05 155.32 359.6 155.53 352.44 155.98 345.27 157.11 338.39 158.9 331.8 161.03 325.17 163.84 318.81 167.3 312.74 171.09 306.6 175.48 300.72 180.42 295.07 185.6 289.35 191.25 283.83 197.3 278.51 203.48 273.06 209.97 267.78 216.71 262.64 223.46 257.32 230.38 252.11 237.45 246.99 244.41 241.65 251.48 236.37 258.61 231.14 265.6 225.67 272.64 220.23 279.74 214.84 286.68 209.23 293.68 203.66 300.76 198.19 307.69 192.55 314.73 187.04 321.88 181.72 328.92 176.34 336.11 171.23 343.47 166.45 350.75 161.76 358.22 157.5 365.91 153.77 373.55 150.27 381.43 147.39 389.56 145.2 397.66 143.37 406.04 142.31 414.69 142.07" stroke-dasharray="5 3" transform="rotate(16.16, 400, 400)" opacity="0.47"></path><path d="M418.69 152.66C427.01 152.83 435.37 153.78 443.73 155.45 452.1 157.47 460.45 160.16 468.77 163.45 477.07 166.97 485.3 171.01 493.4 175.49 501.45 180.07 509.32 185 516.94 190.21 524.44 195.4 531.62 200.8 538.4 206.36 544.97 211.79 551.05 217.33 556.58 222.94 561.8 228.37 566.38 233.85 570.26 239.38 575.19 247.39 580.9 263.37 581.8 271.41 581.92 279.29 580.36 295.52 579.44 303.96 579.39 309.55 579.64 315.35 580.33 321.37 581.92 327.33 584.17 333.53 587.13 339.98 591.14 346.38 595.9 353.05 601.33 359.99 607.62 366.9 614.37 374.1 621.35 381.56 628.65 389.02 635.75 396.77 642.34 404.8 648.51 412.83 653.54 420.97 657.26 429.18 659.98 437.41 661.16 445.71 660.78 454.08 659.24 462.46 656.19 470.89 651.76 479.35 646.38 487.81 639.89 496.29 632.49 504.73 624.58 513.15 616.1 521.5 607.27 529.75 598.4 537.92 589.46 545.94 580.61 553.72 572.07 561.36 563.79 568.7 555.83 575.66 548.36 582.4 541.24 588.68 534.49 594.42 528.23 599.84 522.27 604.64 516.55 608.77 508.64 614 493.65 620.09 486.22 620.91 478.86 620.52 463.1 616.28 454.53 612.87 448.72 610.59 442.57 608.11 436.07 605.54 429.57 603.4 422.72 601.38 415.53 599.56 408.33 598.45 400.81 597.69 392.97 597.33 385.13 597.8 377.18 598.67 369.16 599.89 361.16 601.8 353.11 603.91 345.06 606.11 337.05 608.75 329.06 611.27 321.14 613.57 313.28 616 305.52 618 297.9 619.49 290.39 620.84 283.05 621.52 275.95 621.5 268.99 621.16 262.3 620.03 255.94 618.13 249.74 615.83 243.9 612.75 238.46 608.95 233.21 604.74 228.38 599.87 224 594.38 219.8 588.57 216.03 582.23 212.72 575.44 209.53 568.42 206.75 561.03 204.38 553.35 202.03 545.53 200.02 537.48 198.32 529.28 196.52 521.01 194.94 512.64 193.55 504.2 191.94 495.75 190.44 487.27 189.03 478.8 187.3 470.34 185.61 461.91 183.97 453.53 181.98 445.16 180.04 436.86 178.18 428.64 176.05 420.43 174.06 412.3 172.28 404.28 170.37 396.25 168.84 388.51 167.73 381.06 166.69 373.6 166.18 366.41 166.24 359.51 166.53 352.58 167.45 345.92 169.01 339.53 170.88 333.1 173.4 326.91 176.55 320.97 180.01 314.97 184.07 309.19 188.66 303.63 193.51 297.97 198.84 292.49 204.57 287.18 210.45 281.75 216.67 276.44 223.17 271.27 229.71 265.92 236.45 260.66 243.36 255.48 250.22 250.1 257.19 244.77 264.26 239.49 271.22 234 278.25 228.56 285.33 223.17 292.29 217.59 299.31 212.08 306.4 206.68 313.36 201.14 320.41 195.76 327.55 190.58 334.59 185.37 341.75 180.44 349.04 175.85 356.27 171.35 363.65 167.29 371.21 163.73 378.72 160.41 386.43 157.68 394.34 155.61 402.23 153.89 410.35 152.89 418.68 152.66" stroke-dasharray="6 0" transform="rotate(20.200000000000003, 400, 400)" opacity="0.51"></path><path d="M421.34 163.25C429.32 163.4 437.27 164.29 445.18 165.87 453.08 167.77 460.91 170.3 468.65 173.4 476.36 176.74 483.95 180.57 491.35 184.84 498.68 189.22 505.78 193.95 512.6 198.97 519.28 203.99 525.61 209.23 531.52 214.65 537.23 219.97 542.45 225.42 547.12 230.96 551.53 236.35 555.35 241.81 558.53 247.33 562.56 255.35 567.14 271.42 567.88 279.49 568.12 287.42 567.53 303.64 567.37 312.01 567.86 317.55 568.66 323.27 569.89 329.18 571.96 335.03 574.6 341.08 577.88 347.36 582.08 353.59 586.9 360.07 592.28 366.78 598.39 373.47 604.85 380.41 611.46 387.6 618.34 394.78 624.98 402.23 631.15 409.94 636.94 417.65 641.69 425.44 645.26 433.3 647.97 441.16 649.28 449.08 649.18 457.04 648.06 465.01 645.56 473 641.78 480.99 637.12 488.97 631.39 496.93 624.77 504.82 617.62 512.68 609.86 520.44 601.67 528.05 593.34 535.58 584.85 542.91 576.33 549.98 567.99 556.9 559.8 563.5 551.83 569.71 544.22 575.7 536.89 581.23 529.86 586.23 523.24 590.94 516.89 595.06 510.78 598.54 502.23 602.92 486.14 607.73 478.31 608.18 470.64 607.61 454.71 603.53 446.27 600.42 440.58 598.39 434.63 596.18 428.4 593.9 422.16 592.04 415.64 590.27 408.83 588.68 402.02 587.72 394.92 587.06 387.55 586.75 380.18 587.17 372.73 587.93 365.24 588.99 357.76 590.67 350.26 592.52 342.77 594.45 335.32 596.79 327.92 599.04 320.6 601.11 313.34 603.32 306.2 605.17 299.22 606.58 292.34 607.91 285.66 608.66 279.21 608.8 272.9 608.68 266.86 607.88 261.14 606.38 252.96 603.28 238.68 593.16 232.66 586.29 228.92 581.22 225.58 575.63 222.65 569.59 219.79 563.33 217.31 556.68 215.17 549.71 213.02 542.6 211.17 535.23 209.57 527.67 207.85 520.03 206.32 512.25 204.95 504.37 203.34 496.46 201.83 488.49 200.39 480.5 198.64 472.5 196.92 464.5 195.24 456.54 193.24 448.57 191.28 440.65 189.41 432.79 187.27 424.94 185.27 417.15 183.47 409.45 181.55 401.75 179.98 394.31 178.81 387.13 177.71 379.94 177.1 373.01 177.02 366.34 177.15 359.64 177.87 353.18 179.2 346.96 180.81 340.7 183.04 334.66 185.88 328.83 189.01 322.95 192.71 317.25 196.95 311.74 201.44 306.13 206.4 300.68 211.78 295.38 217.33 289.95 223.23 284.63 229.43 279.42 235.7 274.05 242.2 268.76 248.89 263.53 255.57 258.13 262.39 252.78 269.32 247.49 276.19 242.01 283.14 236.59 290.15 231.23 297.07 225.72 304.06 220.3 311.1 215 318.05 209.6 325.07 204.37 332.16 199.35 339.17 194.33 346.28 189.59 353.49 185.2 360.64 180.92 367.91 177.06 375.31 173.69 382.68 170.55 390.2 167.97 397.87 166.03 405.52 164.4 413.35 163.46 421.33 163.25" stroke-dasharray="3 8" transform="rotate(24.24, 400, 400)" opacity="0.59"></path><path d="M422.46 173.83C430.06 173.98 437.58 174.81 445 176.28 452.41 178.06 459.71 180.44 466.85 183.36 473.96 186.5 480.89 190.12 487.59 194.17 494.22 198.33 500.58 202.85 506.62 207.65 512.54 212.48 518.08 217.54 523.19 222.79 528.14 227.98 532.6 233.3 536.55 238.74 540.29 244.05 543.49 249.45 546.12 254.91 549.49 262.92 553.4 278.98 554.15 287.06 554.66 295.01 555.2 311.2 555.8 319.5 556.8 325 558.11 330.65 559.83 336.45 562.3 342.2 565.29 348.13 568.82 354.25 573.14 360.33 577.98 366.61 583.26 373.11 589.16 379.58 595.31 386.27 601.55 393.19 608 400.1 614.21 407.24 619.96 414.62 625.38 421.99 629.85 429.42 633.27 436.89 635.93 444.37 637.35 451.88 637.5 459.4 636.75 466.92 634.75 474.44 631.57 481.92 627.59 489.39 622.59 496.8 616.73 504.11 610.33 511.38 603.3 518.52 595.8 525.47 588.09 532.34 580.12 538.98 572.04 545.34 564.03 551.56 556.06 557.43 548.21 562.92 540.63 568.19 533.23 573.02 526.06 577.33 519.23 581.39 512.61 584.89 506.21 587.8 500.12 590.43 494.2 592.44 488.41 593.82 480.12 595.19 463.92 594.68 455.8 593 450.45 591.69 444.96 590.02 439.31 588.06 433.7 586.27 427.88 584.34 421.86 582.34 415.84 580.72 409.6 579.19 403.13 577.81 396.65 577 389.95 576.44 383.03 576.16 376.11 576.54 369.14 577.2 362.16 578.1 355.2 579.57 348.24 581.18 341.32 582.86 334.44 584.92 327.62 586.9 320.91 588.72 314.26 590.71 307.75 592.39 301.41 593.7 292.14 595.36 274.92 595.77 267.11 594.34 259.82 591.87 247.15 583.39 241.83 577.49 238.5 573.12 235.53 568.23 232.93 562.91 230.36 557.37 228.11 551.44 226.16 545.18 224.18 538.78 222.43 532.1 220.91 525.2 219.24 518.21 217.73 511.04 216.35 503.76 214.74 496.42 213.2 488.99 211.72 481.51 209.94 474.02 208.19 466.49 206.48 458.97 204.46 451.44 202.49 443.93 200.6 436.45 198.47 428.98 196.47 421.55 194.66 414.18 192.74 406.82 191.15 399.68 189.94 392.78 188.77 385.87 188.07 379.18 187.87 372.72 187.85 366.24 188.39 359.97 189.49 353.91 190.85 347.81 192.8 341.9 195.31 336.18 198.11 330.39 201.46 324.77 205.31 319.3 209.42 313.75 214 308.33 219 303.03 224.18 297.61 229.72 292.29 235.56 287.06 241.51 281.68 247.71 276.38 254.12 271.14 260.56 265.75 267.15 260.41 273.87 255.13 280.57 249.7 287.37 244.33 294.24 239.04 301.06 233.64 307.94 228.33 314.88 223.16 321.76 217.93 328.69 212.87 335.69 208.05 342.62 203.23 349.63 198.71 356.7 194.53 363.74 190.47 370.86 186.82 378.08 183.64 385.27 180.68 392.56 178.26 399.96 176.44 407.35 174.91 414.85 174.03 422.45 173.83" stroke-dasharray="8 2" transform="rotate(28.28, 400, 400)" opacity="0.40"></path><path d="M421.98 184.42C429.17 184.55 436.24 185.32 443.15 186.7 450.06 188.35 456.8 190.57 463.35 193.31 469.86 196.25 476.16 199.66 482.19 203.47 488.15 207.41 493.82 211.69 499.15 216.27 504.37 220.89 509.21 225.74 513.64 230.79 517.93 235.81 521.76 240.98 525.12 246.27 529.69 254.12 536.22 270.07 538.26 278.11 539.86 286.03 541.68 302 542.31 310.08 543.42 318.11 547.11 334.57 550.14 343.06 552.95 348.71 556.2 354.51 559.91 360.47 564.3 366.4 569.1 372.5 574.25 378.78 579.91 385.04 585.74 391.49 591.61 398.13 597.64 404.76 603.42 411.59 608.77 418.62 613.82 425.64 618.02 432.7 621.27 439.77 623.88 446.84 625.37 453.91 625.74 460.97 625.31 468.02 623.76 475.03 621.13 481.99 617.78 488.91 613.48 495.76 608.34 502.47 602.7 509.13 596.4 515.64 589.61 521.94 582.56 528.15 575.19 534.11 567.63 539.78 560.05 545.31 552.43 550.5 544.84 555.3 537.41 559.91 530.1 564.08 522.94 567.78 516.02 571.25 509.28 574.2 502.72 576.62 496.42 578.79 490.26 580.42 484.24 581.49 475.58 582.51 458.78 581.76 450.48 580.19 445.04 579.02 439.51 577.53 433.89 575.8 428.32 574.24 422.6 572.57 416.75 570.84 410.91 569.47 404.9 568.16 398.73 566.97 392.56 566.29 386.22 565.82 379.72 565.57 373.21 565.91 366.71 566.47 360.23 567.24 353.76 568.51 347.33 569.89 340.97 571.33 334.64 573.12 328.4 574.85 322.29 576.44 313.28 578.95 296.24 582.45 288.34 583.13 280.84 583.12 267.41 580.1 261.57 577.04 256.19 573.06 247.18 562.17 243.51 555.39 241.18 550.54 239.11 545.31 237.31 539.73 235.44 534.02 233.77 528.02 232.29 521.78 230.65 515.44 229.14 508.91 227.73 502.22 226.1 495.48 224.52 488.62 222.99 481.68 221.19 474.71 219.41 467.68 217.67 460.62 215.64 453.56 213.67 446.48 211.77 439.41 209.65 432.34 207.66 425.28 205.85 418.26 203.94 411.24 202.34 404.41 201.09 397.79 199.88 391.16 199.1 384.72 198.79 378.47 198.63 372.21 198.99 366.12 199.88 360.21 201 354.27 202.66 348.49 204.86 342.86 207.33 337.18 210.31 331.63 213.79 326.22 217.5 320.72 221.68 315.34 226.26 310.05 231.04 304.67 236.18 299.36 241.63 294.14 247.21 288.79 253.05 283.51 259.12 278.29 265.24 272.94 271.55 267.64 277.99 262.42 284.45 257.07 291.02 251.79 297.68 246.62 304.31 241.34 311.02 236.19 317.79 231.19 324.51 226.14 331.3 221.29 338.13 216.67 344.93 212.09 351.77 207.79 358.67 203.83 365.54 200 372.47 196.56 379.45 193.58 386.42 190.81 393.45 188.55 400.54 186.85 407.63 185.43 414.78 184.6 421.97 184.42" stroke-dasharray="9 1" transform="rotate(32.32, 400, 400)" opacity="0.32"></path><path d="M419.92 195.01C426.69 195.13 433.28 195.84 439.69 197.12 446.09 198.65 452.29 200.71 458.26 203.26 464.2 206 469.89 209.19 475.3 212.76 480.65 216.46 485.69 220.5 490.39 224.83 495.01 229.22 499.25 233.84 503.1 238.67 508.52 245.98 517.11 261.22 520.29 269.05 522.99 276.83 526.68 292.57 527.92 300.52 529.26 308.38 532.22 324.33 534.24 332.45 536.13 337.83 538.3 343.31 540.79 348.9 543.87 354.44 547.33 360.11 551.15 365.91 555.55 371.67 560.27 377.59 565.25 383.64 570.65 389.68 576.15 395.88 581.65 402.23 587.26 408.58 592.62 415.09 597.58 421.75 602.27 428.42 606.2 435.08 609.28 441.73 611.81 448.38 613.36 455 613.9 461.57 613.75 468.14 612.59 474.64 610.47 481.04 607.7 487.42 604.04 493.69 599.61 499.8 594.69 505.86 589.13 511.74 583.05 517.39 576.69 522.96 569.97 528.27 562.99 533.28 555.94 538.17 548.77 542.71 541.55 546.88 534.41 550.88 527.31 554.47 520.29 557.61 513.45 560.56 506.72 563.04 500.13 565.03 493.73 566.84 487.47 568.15 481.32 568.97 472.42 569.73 455.22 568.89 446.79 567.46 438.49 565.78 421.76 561.6 413.25 559.41 407.56 558.26 401.77 557.16 395.87 556.15 389.98 555.59 383.97 555.2 377.86 554.98 371.74 555.28 365.67 555.76 359.66 556.4 353.66 557.49 347.74 558.66 341.91 559.87 333.26 562.15 316.71 566.44 308.91 568.14 301.4 569.57 287.65 570.37 281.5 569.56 275.73 568.03 265.76 562.21 261.56 557.95 257.69 552.94 251.24 540.57 248.58 533.35 245.97 525.62 241.28 508.7 239.07 499.66 237.4 493.53 235.79 487.24 234.21 480.84 232.38 474.42 230.57 467.9 228.8 461.33 226.78 454.75 224.8 448.12 222.91 441.47 220.81 434.82 218.84 428.15 217.04 421.49 215.15 414.83 213.55 408.32 212.28 401.98 211.03 395.64 210.19 389.45 209.78 383.43 209.6 374.44 211.96 357.14 214.56 348.8 216.69 343.23 219.32 337.77 222.4 332.42 225.72 327 229.48 321.67 233.64 316.43 237.98 311.1 242.69 305.85 247.72 300.66 252.88 295.37 258.32 290.14 263.99 284.98 269.74 279.71 275.69 274.5 281.79 269.37 287.93 264.14 294.21 259 300.57 253.96 306.95 248.86 313.41 243.89 319.92 239.08 326.43 234.26 332.99 229.63 339.59 225.24 346.18 220.9 352.8 216.84 359.46 213.12 366.1 209.52 372.78 206.31 379.48 203.53 386.17 200.94 392.9 198.84 399.64 197.26 406.39 195.94 413.15 195.18 419.91 195.01" stroke-dasharray="0 4" transform="rotate(36.36, 400, 400)" opacity="0.40"></path><path d="M416.44 205.6C422.76 205.7 428.88 206.36 434.79 207.54 440.68 208.95 446.36 210.85 451.79 213.21 462.57 218.47 472.25 225.3 480.65 233.35 488.8 241.66 495.55 250.87 500.81 260.7 505.85 270.39 509.56 280.52 512.08 290.93 514.92 301.02 517.18 311.4 519.28 322 522.69 332.31 526.74 342.95 531.78 353.9 538.83 364.68 547.08 375.91 556.25 387.57 561.36 393.38 566.53 399.31 571.65 405.36 576.85 411.41 581.81 417.59 586.38 423.88 590.73 430.17 594.4 436.44 597.3 442.65 599.74 448.86 601.31 455.02 601.98 461.1 601.57 473.23 597.6 484.96 590.52 496.06 581.64 506.94 570.55 516.98 558.04 525.88 545.04 534.34 531.49 541.42 517.93 546.9 504.77 551.77 491.9 554.93 479.47 556.32 467.6 557.28 456.01 556.72 444.66 554.82 433.63 553.17 422.57 550.8 411.43 548.04 403.1 546.65 386.18 544.74 377.58 544.4 369 544.86 352.3 546.99 344.25 548.48 333.63 551.34 323.6 553.79 314.35 555.48 305.25 557.4 297.04 557.94 289.87 556.94 282.86 555.5 276.89 552.26 272.01 547.32 267.1 541.76 263.09 534.59 259.9 526.05 256.26 517.08 253.11 506.97 250.35 496.04 246.71 484.9 243.21 473.13 239.89 460.98 237.87 454.88 235.9 448.72 234.02 442.5 231.95 436.28 230.01 430.02 228.24 423.72 226.37 417.43 224.78 411.26 223.5 405.22 222.23 399.17 221.34 393.25 220.84 387.46 220.21 375.82 221.41 364.63 224.41 353.89 228.26 342.98 233.93 332.38 241.18 322.13 249.17 311.59 258.49 301.26 268.84 291.22 279.59 280.85 291.09 270.76 303.08 261.11 315.18 251.29 327.62 242.08 340.21 233.76 352.81 225.68 365.55 218.8 378.29 213.47 384.66 211.08 391.04 209.13 397.4 207.68 403.77 206.45 410.12 205.75 416.43 205.6" stroke-dasharray="3 9" transform="rotate(40.400000000000006, 400, 400)" opacity="0.08"></path><path d="M411.78 216.18C423.5 216.6 434.36 219.01 444.24 223.17 454.04 228.01 462.76 234.34 470.27 241.84 477.61 249.63 483.71 258.32 488.53 267.64 493.3 276.91 496.99 286.65 499.78 296.7 503.02 306.52 505.89 316.63 508.75 326.94 512.84 337.03 517.54 347.41 523.07 358.02 530.29 368.5 538.45 379.34 547.24 390.48 557.07 401.59 566.67 413.08 575.19 424.9 582.94 436.72 587.97 448.29 590.01 459.48 590.08 470.62 586.98 481.27 581.08 491.22 573.53 500.98 563.84 509.86 552.68 517.62 540.91 525.01 528.4 531.1 515.65 535.72 503.08 539.87 490.61 542.51 478.44 543.6 466.68 544.41 455.16 543.93 443.92 542.3 432.96 540.98 422.07 539.04 411.26 536.75 400.53 535.54 389.73 534.51 378.91 533.81 368.09 534.66 357.75 535.83 347.99 537.16 338.25 539.55 329.17 541.57 320.87 542.94 312.67 544.59 305.31 545.07 298.92 544.24 292.6 543.11 287.2 540.42 282.75 536.21 278.17 531.52 274.35 525.35 271.22 517.9 267.61 510.06 264.41 501.12 261.53 491.32 257.84 481.32 254.28 470.64 250.91 459.47 246.71 448.26 242.79 436.67 239.43 424.86 235.72 413.04 233.19 401.56 231.97 390.48 231.13 379.35 231.96 368.55 234.43 358.11 237.65 347.53 242.55 337.2 248.94 327.16 256.02 316.89 264.4 306.82 273.8 297.04 283.62 287.03 294.24 277.32 305.36 268.07 316.67 258.75 328.36 250.06 340.2 242.25 352.11 234.71 364.13 228.33 376.11 223.42 388.11 219.19 400.06 216.7 411.77 216.18" stroke-dasharray="3 6" transform="rotate(44.44, 400, 400)" opacity="0.77"></path><path d="M406.28 226.77C417.07 227.14 427.01 229.33 436 233.13 444.92 237.56 452.82 243.38 459.63 250.31 466.35 257.55 472 265.67 476.59 274.44 481.24 283.22 485.06 292.49 488.22 302.09 491.89 311.54 495.36 321.29 498.9 331.23 503.57 341.01 508.77 351.04 514.63 361.25 521.91 371.36 529.87 381.74 538.22 392.34 547.38 402.9 556.2 413.74 564 424.76 571.13 435.79 575.87 446.48 577.98 456.7 578.45 466.86 576.13 476.47 571.28 485.34 564.97 494.03 556.65 501.85 546.84 508.59 536.36 515.03 525.01 520.27 513.25 524.18 501.49 527.74 489.64 529.97 477.97 530.86 466.55 531.61 455.32 531.24 444.36 529.91 433.61 528.92 423 527.38 412.57 525.52 402.21 524.62 391.92 523.82 381.75 523.22 371.58 523.96 361.99 524.89 353.04 525.9 344.1 527.86 335.84 529.47 328.37 530.52 320.93 531.89 314.29 532.26 308.53 531.51 300.28 529.46 287.46 518.1 282.49 508.96 278.87 502.16 275.59 494.29 272.6 485.55 268.86 476.64 265.27 467 261.87 456.81 257.74 446.57 253.92 435.87 250.62 424.84 247.02 413.81 244.5 402.98 243.18 392.44 242.17 381.86 242.66 371.51 244.64 361.43 247.26 351.25 251.42 341.26 256.96 331.52 263.14 321.61 270.56 311.9 278.96 302.48 287.8 292.9 297.44 283.65 307.62 274.88 318.03 266.11 328.83 257.98 339.82 250.71 350.9 243.74 362.1 237.87 373.24 233.37 384.41 229.5 395.49 227.23 406.28 226.77" stroke-dasharray="9 7" transform="rotate(48.48, 400, 400)" opacity="0.21"></path><path d="M400.33 237.36C410.21 237.68 419.28 239.66 427.47 243.11 435.61 247.13 442.84 252.43 449.12 258.79 455.37 265.45 460.73 272.97 465.24 281.13 469.9 289.35 473.93 298.08 477.5 307.15 481.6 316.15 485.61 325.45 489.73 334.93 494.84 344.3 500.39 353.9 506.45 363.63 513.65 373.29 521.32 383.16 529.18 393.15 537.65 403.12 545.72 413.26 552.81 423.48 559.33 433.7 563.76 443.5 565.9 452.77 566.69 462 565.03 470.61 561.13 478.47 555.97 486.19 548.94 493.05 540.46 498.89 531.3 504.5 521.19 509.02 510.53 512.35 499.75 515.44 488.74 517.37 477.75 518.16 466.91 518.9 456.16 518.69 445.65 517.66 435.28 516.98 425.08 515.83 415.1 514.36 405.19 513.74 395.43 513.14 385.89 512.63 376.35 513.26 367.45 513.99 359.23 514.72 351 516.28 343.46 517.5 336.67 518.24 326.85 519.42 310.89 517.02 304.63 512.92 300.45 509.55 296.8 504.99 293.64 499.34 289.99 493.45 286.64 486.55 283.54 478.79 279.78 470.89 276.16 462.24 272.77 453 268.73 443.71 265.01 433.89 261.81 423.67 258.33 413.45 255.85 403.31 254.46 393.35 253.31 383.38 253.51 373.53 255.04 363.9 257.11 354.19 260.58 344.62 265.31 335.28 270.6 325.82 277.05 316.55 284.46 307.58 292.28 298.52 300.89 289.8 310.05 281.58 319.46 273.41 329.29 265.87 339.33 259.17 349.49 252.78 359.77 247.42 370 243.34 380.28 239.82 390.45 237.77 400.33 237.36" stroke-dasharray="10 2" transform="rotate(52.52, 400, 400)" opacity="0.52"></path><path d="M394.35 247.95C403.34 248.23 411.61 250 419.1 253.1 426.56 256.71 433.24 261.5 439.12 267.27 445.03 273.33 450.22 280.22 454.75 287.73 459.48 295.35 463.76 303.47 467.72 311.94 472.19 320.39 476.65 329.14 481.22 338.08 486.62 346.96 492.37 356.03 498.48 365.21 505.49 374.34 512.78 383.62 520.11 392.96 527.88 402.29 535.21 411.71 541.62 421.11 547.55 430.51 551.65 439.44 553.77 447.8 554.8 456.12 553.71 463.81 550.66 470.75 546.53 477.58 540.69 483.58 533.49 488.65 525.63 493.55 516.8 497.47 507.33 500.34 497.65 503.07 487.63 504.8 477.51 505.55 467.42 506.32 457.35 506.3 447.44 505.57 437.63 505.19 427.96 504.38 418.53 503.27 409.15 502.89 399.96 502.47 391.04 502.05 382.12 502.58 373.86 503.12 366.29 503.6 358.69 504.79 351.76 505.67 345.54 506.11 336.48 506.91 321.57 504.56 315.55 500.94 311.47 498.04 307.83 494.09 304.61 489.16 300.93 484.05 297.51 478.01 294.33 471.15 290.56 464.18 286.96 456.46 283.59 448.13 279.68 439.75 276.09 430.81 273.01 421.41 269.67 412 267.25 402.58 265.82 393.27 264.56 383.94 264.51 374.67 265.65 365.56 267.22 356.4 270.04 347.34 274.01 338.49 278.45 329.57 283.97 320.83 290.38 312.39 297.18 303.93 304.73 295.81 312.85 288.18 321.21 280.66 330 273.74 339.04 267.64 348.2 261.83 357.5 256.99 366.79 253.32 376.12 250.15 385.36 248.3 394.35 247.95" stroke-dasharray="4 1" transform="rotate(56.56, 400, 400)" opacity="0.65"></path><path d="M388.78 258.53C396.91 258.77 404.43 260.34 411.3 263.1 418.16 266.31 424.38 270.59 429.96 275.77 435.6 281.23 440.69 287.47 445.3 294.3 450.11 301.25 454.62 308.71 458.92 316.52 463.67 324.35 468.44 332.48 473.32 340.79 478.87 349.08 484.68 357.55 490.7 366.09 497.41 374.62 504.26 383.25 511.01 391.89 518.08 400.53 524.68 409.18 530.42 417.76 535.78 426.34 539.54 434.41 541.61 441.9 542.81 449.36 542.19 456.19 539.86 462.3 536.65 468.33 531.91 473.59 525.9 478 519.3 482.3 511.73 485.73 503.49 488.25 494.99 490.7 486.06 492.3 476.93 493.07 467.76 493.91 458.52 494.08 449.37 493.64 440.26 493.53 431.25 493.04 422.45 492.25 413.7 492.07 405.12 491.8 396.83 491.46 388.54 491.91 380.89 492.28 373.89 492.54 363.67 493.7 346.27 494.56 339.04 493.68 332.15 492.12 320.45 484.6 315.34 478.56 311.64 474.12 308.18 468.83 304.94 462.78 301.2 456.64 297.65 449.79 294.34 442.31 290.59 434.81 287.15 426.73 284.2 418.15 281.03 409.57 278.7 400.91 277.25 392.28 275.93 383.65 275.67 375.03 276.46 366.51 277.59 357.97 279.83 349.52 283.09 341.24 286.75 332.94 291.38 324.82 296.84 316.99 302.63 309.18 309.14 301.72 316.21 294.75 323.5 287.89 331.23 281.63 339.23 276.13 347.35 270.91 355.65 266.57 363.97 263.31 372.33 260.48 380.65 258.84 388.78 258.53" stroke-dasharray="0 1" transform="rotate(60.599999999999994, 400, 400)" opacity="0.68"></path><path d="M384.01 269.12C391.32 269.32 398.14 270.69 404.45 273.13 410.76 275.94 416.59 279.72 421.93 284.31 427.34 289.16 432.36 294.73 437.02 300.86 441.89 307.13 446.57 313.87 451.1 320.96 456.02 328.1 460.97 335.54 465.99 343.15 471.54 350.77 477.26 358.56 483.07 366.41 489.39 374.26 495.72 382.18 501.88 390.07 508.24 397.97 514.13 405.85 519.24 413.6 524.03 421.34 527.45 428.58 529.42 435.25 530.6 444.92 524.47 460.94 517.69 467.1 512.26 470.9 505.92 473.94 498.89 476.2 491.6 478.44 483.81 479.96 475.76 480.78 467.62 481.7 459.33 482.06 451.04 481.89 442.76 482.02 434.52 481.8 426.45 481.29 418.4 481.29 410.5 481.15 402.85 480.87 395.21 481.24 388.14 481.47 381.68 481.55 372.21 482.29 355.97 482.41 349.1 481.36 342.48 479.8 330.93 473.02 325.78 467.68 322.09 463.81 318.61 459.17 315.37 453.84 311.7 448.45 308.23 442.39 305.02 435.73 301.44 429.05 298.19 421.8 295.39 414.05 292.41 406.29 290.19 398.41 288.76 390.52 287.4 382.63 286.98 374.71 287.48 366.87 288.23 359.03 289.96 351.25 292.58 343.63 295.52 336.02 299.33 328.58 303.89 321.44 308.73 314.34 314.24 307.58 320.29 301.3 326.52 295.14 333.2 289.55 340.17 284.65 347.24 280.02 354.53 276.19 361.89 273.32 369.29 270.83 376.71 269.39 384.01 269.12" stroke-dasharray="4 5" transform="rotate(64.64, 400, 400)" opacity="0.84"></path><path d="M380.39 279.71C386.9 279.87 393.07 281.06 398.86 283.17 404.66 285.6 410.12 288.89 415.23 292.91 420.41 297.15 425.32 302.05 430 307.46 434.86 313.01 439.59 319.01 444.23 325.35 449.19 331.74 454.17 338.43 459.17 345.28 464.58 352.16 470.06 359.2 475.55 366.3 481.39 373.4 487.17 380.56 492.7 387.67 498.35 394.79 503.55 401.87 508.05 408.79 512.28 415.71 515.35 422.15 517.21 428.05 518.57 436.59 514.2 450.67 508.83 456.1 504.49 459.47 499.29 462.2 493.44 464.26 487.32 466.34 480.71 467.82 473.76 468.71 466.71 469.72 459.44 470.25 452.1 470.32 444.75 470.65 437.37 470.67 430.09 470.39 422.81 470.54 415.64 470.5 408.67 470.28 401.69 470.58 395.22 470.7 389.26 470.63 380.52 471 365.32 470.48 358.76 469.25 352.38 467.66 341.03 461.43 335.88 456.69 330.52 451.25 320.37 437.13 315.62 428.58 312.25 422.67 309.2 416.23 306.58 409.3 303.81 402.37 301.72 395.29 300.33 388.17 298.99 381.06 298.45 373.9 298.71 366.8 299.15 359.7 300.43 352.66 302.5 345.78 304.8 338.92 307.86 332.23 311.61 325.82 315.56 319.48 320.13 313.46 325.21 307.88 330.45 302.44 336.11 297.51 342.08 293.23 348.14 289.17 354.45 285.83 360.87 283.35 367.33 281.18 373.87 279.93 380.39 279.71" stroke-dasharray="8 0" transform="rotate(68.68, 400, 400)" opacity="0.79"></path><path d="M378.16 290.3C389.68 290.85 400.35 294.88 409.98 301.57 419.88 309.05 429.3 318.74 438.26 329.75 448.19 341.04 458.27 353.37 468.1 365.93 478.9 378.57 488.95 391.36 496.85 403.58 503.99 415.79 506.93 426.19 505.78 434.46 502.96 442.67 496.36 448.74 487.07 452.55 476.89 456.51 464.91 458.59 452.25 458.94 439.47 460.19 426.41 460.42 413.86 459.7 401.3 460.57 390.33 460.46 381.02 459.32 371.45 459.06 363.17 457.03 356.18 453.11 348.47 449.32 341.54 443.25 335.59 435.04 328.59 426.75 322.43 416.34 317.78 404.11 312.62 391.89 310.07 379.09 310.14 366.45 310.68 353.87 314.12 341.53 320.01 330.21 326.5 319.16 335.13 309.42 345.14 301.87 355.4 295.09 366.64 290.96 378.16 290.3" stroke-dasharray="1 8" transform="rotate(72.72, 400, 400)" opacity="0.47"></path><path d="M377.5 300.88C387.56 301.31 397.21 304.68 406.21 310.32 415.44 316.6 424.44 324.83 433.09 334.26 442.42 343.96 451.78 354.6 460.7 365.5 470.22 376.48 478.91 387.6 485.66 398.2 491.83 408.8 494.55 417.82 493.93 425.02 492.11 432.19 487.12 437.6 479.77 441.14 471.69 444.87 461.88 447.05 451.23 447.76 440.43 449.19 429.15 449.65 418.06 449.11 406.97 449.78 397.05 449.43 388.44 448.09 379.63 447.47 371.8 445.35 365.04 441.66 357.71 438.15 351.08 432.75 345.37 425.58 338.88 418.37 333.22 409.35 328.97 398.74 324.32 388.13 321.93 377 321.77 366.01 321.89 355.1 324.45 344.43 329.11 334.69 334.17 325.23 341.14 316.94 349.44 310.59 357.91 304.87 367.44 301.41 377.5 300.88" stroke-dasharray="5 8" transform="rotate(76.76, 400, 400)" opacity="0.49"></path><path d="M378.45 311.47C387.09 311.79 395.65 314.53 403.87 319.17 412.25 324.3 420.57 331.1 428.6 338.95 437.08 347.03 445.47 355.98 453.31 365.18 461.49 374.46 468.83 383.89 474.47 392.91 479.69 401.92 482.12 409.62 481.89 415.83 480.83 422.05 477.2 426.84 471.54 430.12 465.35 433.6 457.57 435.81 448.86 436.77 440.02 438.29 430.54 438.91 420.97 438.52 411.4 439.01 402.61 438.5 394.8 437.06 386.83 436.17 379.59 434.02 373.21 430.59 366.43 427.33 360.24 422.56 354.91 416.36 349.04 410.15 343.96 402.45 340.16 393.43 336.06 384.4 333.89 374.96 333.58 365.66 333.42 356.44 335.27 347.47 338.88 339.35 342.74 331.46 348.25 324.61 355.01 319.4 361.87 314.69 369.8 311.87 378.45 311.47" stroke-dasharray="8 9" transform="rotate(80.80000000000001, 400, 400)" opacity="0.92"></path><path d="M380.94 322.06C388.19 322.28 395.57 324.43 402.81 328.12 410.16 332.17 417.53 337.59 424.65 343.9 432.03 350.41 439.26 357.65 445.89 365.16 452.68 372.74 458.7 380.48 463.28 387.94 468.62 398.61 467.9 414.46 462.44 419.55 457.88 422.72 451.92 424.88 445.05 425.99 438.07 427.5 430.38 428.19 422.38 427.93 414.38 428.28 406.82 427.67 399.93 426.23 392.95 425.18 386.46 423.07 380.65 419.95 374.58 416.99 369.01 412.83 364.22 407.56 359.07 402.31 354.65 395.88 351.35 388.42 347.84 380.95 345.94 373.2 345.56 365.6 345.24 358.07 346.54 350.8 349.29 344.26 352.16 337.91 356.41 332.44 361.8 328.33 367.23 324.58 373.69 322.35 380.94 322.06" stroke-dasharray="9 1" transform="rotate(84.84, 400, 400)" opacity="0.36"></path><path d="M384.79 332.65C396.5 333.25 409.31 339.66 421.08 349.2 433.38 359.27 444.86 371.68 452.08 383.53 458.6 395.38 458.28 404.31 452.54 409.5 445.92 415.16 434.98 418.03 422.18 417.35 409.39 418.17 397.23 415.41 387.35 409.83 376.85 404.7 367.82 395.8 362.54 383.94 356.7 372.08 356.2 359.63 360.24 349.49 364.46 339.88 373.08 333.37 384.79 332.65" stroke-dasharray="5 11" transform="rotate(88.88, 400, 400)" opacity="0.82"></path><path d="M389.73 343.23C398.62 343.57 408.59 348.07 417.73 354.9 427.08 362.05 435.64 371.05 440.89 379.89 445.77 392.2 433.8 405.87 420.4 406.76 410.84 407.23 401.3 404.8 393.31 400.24 385.02 395.98 377.89 389.05 373.74 380.21 369.25 371.37 368.76 362.34 371.65 355.13 374.56 348.25 380.84 343.66 389.73 343.23" stroke-dasharray="10 7" transform="rotate(92.92, 400, 400)" opacity="0.92"></path><path d="M395.41 353.82C407.43 354.44 422.82 365.43 429.7 377.17 435.9 388.91 429.81 396.83 417.16 396.17 404.5 396.97 390.51 389.14 384.93 377.4 378.74 365.65 383.38 354.57 395.41 353.82" stroke-dasharray="8 10" transform="rotate(96.96, 400, 400)" opacity="0.99"></path></g></svg>